<svg xmlns="http://www.w3.org/2000/svg" width="1027" height="600"><rect width="1027" height="600" x="0" y="0" fill="#FFFFFF" id="background"/><g id="series"><g transform="translate(0,0)"><g transform="translate(50,50)" clip-path="url(#serieClipPath)"><g id="axis"><g transform="translate(0,500)" fill="none" font-size="10" font-family="sans-serif" text-anchor="middle"><path class="domain" stroke="currentColor" d="M0,6V0H727V6"/><g class="tick" opacity="1" transform="translate(0,0)"><line stroke="currentColor" y2="6"/><text fill="currentColor" y="9" dy="0.71em">0</text></g><g class="tick" opacity="1" transform="translate(91,0)"><line stroke="currentColor" y2="6"/><text fill="currentColor" y="9" dy="0.71em">50</text></g><g class="tick" opacity="1" transform="translate(182,0)"><line stroke="currentColor" y2="6"/><text fill="currentColor" y="9" dy="0.71em">100</text></g><g class="tick" opacity="1" transform="translate(273,0)"><line stroke="currentColor" y2="6"/><text fill="currentColor" y="9" dy="0.71em">150</text></g><g class="tick" opacity="1" transform="translate(364,0)"><line stroke="currentColor" y2="6"/><text fill="currentColor" y="9" dy="0.71em">200</text></g><g class="tick" opacity="1" transform="translate(454,0)"><line stroke="currentColor" y2="6"/><text fill="currentColor" y="9" dy="0.71em">250</text></g><g class="tick" opacity="1" transform="translate(545,0)"><line stroke="currentColor" y2="6"/><text fill="currentColor" y="9" dy="0.71em">300</text></g><g class="tick" opacity="1" transform="translate(636,0)"><line stroke="currentColor" y2="6"/><text fill="currentColor" y="9" dy="0.71em">350</text></g><g class="tick" opacity="1" transform="translate(727,0)"><line stroke="currentColor" y2="6"/><text fill="currentColor" y="9" dy="0.71em">400</text></g><text x="727" dy="-5" text-anchor="end" style="font-family: Arial, sans-serif; font-size: 12px; fill: rgb(123, 123, 123); font-weight: bold;">Budget (mln)</text></g><g fill="none" font-size="10" font-family="sans-serif" text-anchor="end"><path class="domain" stroke="currentColor" d="M-6,500H0V0H-6"/><g class="tick" opacity="1" transform="translate(0,500)"><line stroke="currentColor" x2="-6"/><text fill="currentColor" x="-9" dy="0.32em">0</text></g><g class="tick" opacity="1" transform="translate(0,464)"><line stroke="currentColor" x2="-6"/><text fill="currentColor" x="-9" dy="0.32em">200</text></g><g class="tick" opacity="1" transform="translate(0,429)"><line stroke="currentColor" x2="-6"/><text fill="currentColor" x="-9" dy="0.32em">400</text></g><g class="tick" opacity="1" transform="translate(0,393)"><line stroke="currentColor" x2="-6"/><text fill="currentColor" x="-9" dy="0.32em">600</text></g><g class="tick" opacity="1" transform="translate(0,357)"><line stroke="currentColor" x2="-6"/><text fill="currentColor" x="-9" dy="0.32em">800</text></g><g class="tick" opacity="1" transform="translate(0,321)"><line stroke="currentColor" x2="-6"/><text fill="currentColor" x="-9" dy="0.32em">1,000</text></g><g class="tick" opacity="1" transform="translate(0,286)"><line stroke="currentColor" x2="-6"/><text fill="currentColor" x="-9" dy="0.32em">1,200</text></g><g class="tick" opacity="1" transform="translate(0,250)"><line stroke="currentColor" x2="-6"/><text fill="currentColor" x="-9" dy="0.32em">1,400</text></g><g class="tick" opacity="1" transform="translate(0,214)"><line stroke="currentColor" x2="-6"/><text fill="currentColor" x="-9" dy="0.32em">1,600</text></g><g class="tick" opacity="1" transform="translate(0,179)"><line stroke="currentColor" x2="-6"/><text fill="currentColor" x="-9" dy="0.32em">1,800</text></g><g class="tick" opacity="1" transform="translate(0,143)"><line stroke="currentColor" x2="-6"/><text fill="currentColor" x="-9" dy="0.32em">2,000</text></g><g class="tick" opacity="1" transform="translate(0,107)"><line stroke="currentColor" x2="-6"/><text fill="currentColor" x="-9" dy="0.32em">2,200</text></g><g class="tick" opacity="1" transform="translate(0,71)"><line stroke="currentColor" x2="-6"/><text fill="currentColor" x="-9" dy="0.32em">2,400</text></g><g class="tick" opacity="1" transform="translate(0,36)"><line stroke="currentColor" x2="-6"/><text fill="currentColor" x="-9" dy="0.32em">2,600</text></g><g class="tick" opacity="1" transform="translate(0,0)"><line stroke="currentColor" x2="-6"/><text fill="currentColor" x="-9" dy="0.32em">2,800</text></g><text x="4" text-anchor="start" dominant-baseline="hanging" style="font-family: Arial, sans-serif; font-size: 12px; fill: rgb(123, 123, 123); font-weight: bold;">Real Worldwide Box Office (mln)</text></g></g><g id="viz"><g><circle cx="2" cy="452" fill="rgb(248, 142, 83)" r="19" stroke="none"/></g><g><circle cx="3" cy="425" fill="rgb(248, 142, 83)" r="18" stroke="none"/></g><g><circle cx="7" cy="428" fill="rgb(213, 238, 159)" r="11" stroke="none"/></g><g><circle cx="7" cy="433" fill="rgb(248, 142, 83)" r="11" stroke="none"/></g><g><circle cx="5" cy="453" fill="rgb(248, 142, 83)" r="11" stroke="none"/></g><g><circle cx="19" cy="358" fill="rgb(137, 207, 165)" r="10" stroke="none"/></g><g><circle cx="7" cy="446" fill="rgb(248, 142, 83)" r="10" stroke="none"/></g><g><circle cx="20" cy="361" fill="rgb(158, 1, 66)" r="9" stroke="none"/></g><g><circle cx="11" cy="429" fill="rgb(94, 79, 162)" r="9" stroke="none"/></g><g><circle cx="16" cy="416" fill="rgb(219, 73, 74)" r="8" stroke="none"/></g><g><circle cx="15" cy="449" fill="rgb(254, 210, 129)" r="7" stroke="none"/></g><g><circle cx="22" cy="421" fill="rgb(70, 150, 179)" r="7" stroke="none"/></g><g><circle cx="6" cy="478" fill="rgb(158, 1, 66)" r="7" stroke="none"/></g><g><circle cx="11" cy="456" fill="rgb(251, 248, 176)" r="7" stroke="none"/></g><g><circle cx="20" cy="456" fill="rgb(213, 238, 159)" r="5" stroke="none"/></g><g><circle cx="82" cy="327" fill="rgb(248, 142, 83)" r="5" stroke="none"/></g><g><circle cx="42" cy="402" fill="rgb(158, 1, 66)" r="5" stroke="none"/></g><g><circle cx="431" cy="2" fill="rgb(158, 1, 66)" r="4" stroke="none"/></g><g><circle cx="364" cy="108" fill="rgb(213, 238, 159)" r="4" stroke="none"/></g><g><circle cx="115" cy="316" fill="rgb(158, 1, 66)" r="4" stroke="none"/></g><g><circle cx="273" cy="202" fill="rgb(158, 1, 66)" r="4" stroke="none"/></g><g><circle cx="171" cy="296" fill="rgb(219, 73, 74)" r="4" stroke="none"/></g><g><circle cx="136" cy="354" fill="rgb(158, 1, 66)" r="4" stroke="none"/></g><g><circle cx="18" cy="475" fill="rgb(158, 1, 66)" r="4" stroke="none"/></g><g><circle cx="100" cy="379" fill="rgb(213, 238, 159)" r="4" stroke="none"/></g><g><circle cx="171" cy="330" fill="rgb(219, 73, 74)" r="4" stroke="none"/></g><g><circle cx="59" cy="415" fill="rgb(158, 1, 66)" r="4" stroke="none"/></g><g><circle cx="647" cy="0" fill="rgb(158, 1, 66)" r="3" stroke="none"/></g><g><circle cx="24" cy="478" fill="rgb(219, 73, 74)" r="3" stroke="none"/></g><g><circle cx="469" cy="131" fill="rgb(158, 1, 66)" r="3" stroke="none"/></g><g><circle cx="651" cy="134" fill="rgb(158, 1, 66)" r="3" stroke="none"/></g><g><circle cx="209" cy="317" fill="rgb(158, 1, 66)" r="3" stroke="none"/></g><g><circle cx="28" cy="474" fill="rgb(219, 73, 74)" r="3" stroke="none"/></g><g><circle cx="400" cy="229" fill="rgb(158, 1, 66)" r="3" stroke="none"/></g><g><circle cx="463" cy="204" fill="rgb(248, 142, 83)" r="3" stroke="none"/></g><g><circle cx="345" cy="229" fill="rgb(158, 1, 66)" r="3" stroke="none"/></g><g><circle cx="227" cy="325" fill="rgb(219, 73, 74)" r="3" stroke="none"/></g><g><circle cx="318" cy="260" fill="rgb(219, 73, 74)" r="3" stroke="none"/></g><g><circle cx="169" cy="341" fill="rgb(158, 1, 66)" r="3" stroke="none"/></g><g><circle cx="273" cy="271" fill="rgb(248, 142, 83)" r="3" stroke="none"/></g><g><circle cx="273" cy="241" fill="rgb(248, 142, 83)" r="3" stroke="none"/></g><g><circle cx="171" cy="332" fill="rgb(248, 142, 83)" r="3" stroke="none"/></g><g><circle cx="182" cy="343" fill="rgb(219, 73, 74)" r="3" stroke="none"/></g><g><circle cx="273" cy="334" fill="rgb(248, 142, 83)" r="3" stroke="none"/></g><g><circle cx="364" cy="259" fill="rgb(158, 1, 66)" r="3" stroke="none"/></g><g><circle cx="470" cy="262" fill="rgb(158, 1, 66)" r="3" stroke="none"/></g><g><circle cx="364" cy="283" fill="rgb(158, 1, 66)" r="3" stroke="none"/></g><g><circle cx="324" cy="266" fill="rgb(158, 1, 66)" r="3" stroke="none"/></g><g><circle cx="409" cy="310" fill="rgb(158, 1, 66)" r="2" stroke="none"/></g><g><circle cx="663" cy="249" fill="rgb(158, 1, 66)" r="2" stroke="none"/></g><g id="labels"><g transform="translate(2,452)"><text x="0" y="0" text-anchor="middle" dominant-baseline="text-before-edge" transform="translate(0,0)"><tspan x="0" y="0" dy="0"/></text></g><g transform="translate(3,425)"><text x="0" y="0" text-anchor="middle" dominant-baseline="text-before-edge" transform="translate(0,0)"><tspan x="0" y="0" dy="0"/></text></g><g transform="translate(7,428)"><text x="0" y="0" text-anchor="middle" dominant-baseline="text-before-edge" transform="translate(0,0)"><tspan x="0" y="0" dy="0"/></text></g><g transform="translate(7,433)"><text x="0" y="0" text-anchor="middle" dominant-baseline="text-before-edge" transform="translate(0,0)"><tspan x="0" y="0" dy="0"/></text></g><g transform="translate(5,453)"><text x="0" y="0" text-anchor="middle" dominant-baseline="text-before-edge" transform="translate(0,0)"><tspan x="0" y="0" dy="0"/></text></g><g transform="translate(19,358)"><text x="0" y="0" text-anchor="middle" dominant-baseline="text-before-edge" transform="translate(0,0)"><tspan x="0" y="0" dy="0"/></text></g><g transform="translate(7,446)"><text x="0" y="0" text-anchor="middle" dominant-baseline="text-before-edge" transform="translate(0,0)"><tspan x="0" y="0" dy="0"/></text></g><g transform="translate(20,361)"><text x="0" y="0" text-anchor="middle" dominant-baseline="text-before-edge" transform="translate(0,0)"><tspan x="0" y="0" dy="0"/></text></g><g transform="translate(11,429)"><text x="0" y="0" text-anchor="middle" dominant-baseline="text-before-edge" transform="translate(0,0)"><tspan x="0" y="0" dy="0"/></text></g><g transform="translate(16,416)"><text x="0" y="0" text-anchor="middle" dominant-baseline="text-before-edge" transform="translate(0,0)"><tspan x="0" y="0" dy="0"/></text></g><g transform="translate(15,449)"><text x="0" y="0" text-anchor="middle" dominant-baseline="text-before-edge" transform="translate(0,0)"><tspan x="0" y="0" dy="0"/></text></g><g transform="translate(22,421)"><text x="0" y="0" text-anchor="middle" dominant-baseline="text-before-edge" transform="translate(0,0)"><tspan x="0" y="0" dy="0"/></text></g><g transform="translate(6,478)"><text x="0" y="0" text-anchor="middle" dominant-baseline="text-before-edge" transform="translate(0,0)"><tspan x="0" y="0" dy="0"/></text></g><g transform="translate(11,456)"><text x="0" y="0" text-anchor="middle" dominant-baseline="text-before-edge" transform="translate(0,0)"><tspan x="0" y="0" dy="0"/></text></g><g transform="translate(20,456)"><text x="0" y="0" text-anchor="middle" dominant-baseline="text-before-edge" transform="translate(0,0)"><tspan x="0" y="0" dy="0"/></text></g><g transform="translate(82,327)"><text x="0" y="0" text-anchor="middle" dominant-baseline="text-before-edge" transform="translate(0,0)"><tspan x="0" y="0" dy="0"/></text></g><g transform="translate(42,402)"><text x="0" y="0" text-anchor="middle" dominant-baseline="text-before-edge" transform="translate(0,0)"><tspan x="0" y="0" dy="0"/></text></g><g transform="translate(431,2)"><text x="0" y="0" text-anchor="middle" dominant-baseline="text-before-edge" transform="translate(0,0)"><tspan x="0" y="0" dy="0"/></text></g><g transform="translate(364,108)"><text x="0" y="0" text-anchor="middle" dominant-baseline="text-before-edge" transform="translate(0,0)"><tspan x="0" y="0" dy="0"/></text></g><g transform="translate(115,316)"><text x="0" y="0" text-anchor="middle" dominant-baseline="text-before-edge" transform="translate(0,0)"><tspan x="0" y="0" dy="0"/></text></g><g transform="translate(273,202)"><text x="0" y="0" text-anchor="middle" dominant-baseline="text-before-edge" transform="translate(0,0)"><tspan x="0" y="0" dy="0"/></text></g><g transform="translate(171,296)"><text x="0" y="0" text-anchor="middle" dominant-baseline="text-before-edge" transform="translate(0,0)"><tspan x="0" y="0" dy="0"/></text></g><g transform="translate(136,354)"><text x="0" y="0" text-anchor="middle" dominant-baseline="text-before-edge" transform="translate(0,0)"><tspan x="0" y="0" dy="0"/></text></g><g transform="translate(18,475)"><text x="0" y="0" text-anchor="middle" dominant-baseline="text-before-edge" transform="translate(0,0)"><tspan x="0" y="0" dy="0"/></text></g><g transform="translate(100,379)"><text x="0" y="0" text-anchor="middle" dominant-baseline="text-before-edge" transform="translate(0,0)"><tspan x="0" y="0" dy="0"/></text></g><g transform="translate(171,330)"><text x="0" y="0" text-anchor="middle" dominant-baseline="text-before-edge" transform="translate(0,0)"><tspan x="0" y="0" dy="0"/></text></g><g transform="translate(59,415)"><text x="0" y="0" text-anchor="middle" dominant-baseline="text-before-edge" transform="translate(0,0)"><tspan x="0" y="0" dy="0"/></text></g><g transform="translate(647,0)"><text x="0" y="0" text-anchor="middle" dominant-baseline="text-before-edge" transform="translate(0,0)"><tspan x="0" y="0" dy="0"/></text></g><g transform="translate(24,478)"><text x="0" y="0" text-anchor="middle" dominant-baseline="text-before-edge" transform="translate(0,0)"><tspan x="0" y="0" dy="0"/></text></g><g transform="translate(469,131)"><text x="0" y="0" text-anchor="middle" dominant-baseline="text-before-edge" transform="translate(0,0)"><tspan x="0" y="0" dy="0"/></text></g><g transform="translate(651,134)"><text x="0" y="0" text-anchor="middle" dominant-baseline="text-before-edge" transform="translate(0,0)"><tspan x="0" y="0" dy="0"/></text></g><g transform="translate(209,317)"><text x="0" y="0" text-anchor="middle" dominant-baseline="text-before-edge" transform="translate(0,0)"><tspan x="0" y="0" dy="0"/></text></g><g transform="translate(28,474)"><text x="0" y="0" text-anchor="middle" dominant-baseline="text-before-edge" transform="translate(0,0)"><tspan x="0" y="0" dy="0"/></text></g><g transform="translate(400,229)"><text x="0" y="0" text-anchor="middle" dominant-baseline="text-before-edge" transform="translate(0,0)"><tspan x="0" y="0" dy="0"/></text></g><g transform="translate(463,204)"><text x="0" y="0" text-anchor="middle" dominant-baseline="text-before-edge" transform="translate(0,0)"><tspan x="0" y="0" dy="0"/></text></g><g transform="translate(345,229)"><text x="0" y="0" text-anchor="middle" dominant-baseline="text-before-edge" transform="translate(0,0)"><tspan x="0" y="0" dy="0"/></text></g><g transform="translate(227,325)"><text x="0" y="0" text-anchor="middle" dominant-baseline="text-before-edge" transform="translate(0,0)"><tspan x="0" y="0" dy="0"/></text></g><g transform="translate(318,260)"><text x="0" y="0" text-anchor="middle" dominant-baseline="text-before-edge" transform="translate(0,0)"><tspan x="0" y="0" dy="0"/></text></g><g transform="translate(169,341)"><text x="0" y="0" text-anchor="middle" dominant-baseline="text-before-edge" transform="translate(0,0)"><tspan x="0" y="0" dy="0"/></text></g><g transform="translate(273,271)"><text x="0" y="0" text-anchor="middle" dominant-baseline="text-before-edge" transform="translate(0,0)"><tspan x="0" y="0" dy="0"/></text></g><g transform="translate(273,241)"><text x="0" y="0" text-anchor="middle" dominant-baseline="text-before-edge" transform="translate(0,0)"><tspan x="0" y="0" dy="0"/></text></g><g transform="translate(171,332)"><text x="0" y="0" text-anchor="middle" dominant-baseline="text-before-edge" transform="translate(0,0)"><tspan x="0" y="0" dy="0"/></text></g><g transform="translate(182,343)"><text x="0" y="0" text-anchor="middle" dominant-baseline="text-before-edge" transform="translate(0,0)"><tspan x="0" y="0" dy="0"/></text></g><g transform="translate(273,334)"><text x="0" y="0" text-anchor="middle" dominant-baseline="text-before-edge" transform="translate(0,0)"><tspan x="0" y="0" dy="0"/></text></g><g transform="translate(364,259)"><text x="0" y="0" text-anchor="middle" dominant-baseline="text-before-edge" transform="translate(0,0)"><tspan x="0" y="0" dy="0"/></text></g><g transform="translate(470,262)"><text x="0" y="0" text-anchor="middle" dominant-baseline="text-before-edge" transform="translate(0,0)"><tspan x="0" y="0" dy="0"/></text></g><g transform="translate(364,283)"><text x="0" y="0" text-anchor="middle" dominant-baseline="text-before-edge" transform="translate(0,0)"><tspan x="0" y="0" dy="0"/></text></g><g transform="translate(324,266)"><text x="0" y="0" text-anchor="middle" dominant-baseline="text-before-edge" transform="translate(0,0)"><tspan x="0" y="0" dy="0"/></text></g><g transform="translate(409,310)"><text x="0" y="0" text-anchor="middle" dominant-baseline="text-before-edge" transform="translate(0,0)"><tspan x="0" y="0" dy="0"/></text></g><g transform="translate(663,249)"><text x="0" y="0" text-anchor="middle" dominant-baseline="text-before-edge" transform="translate(0,0)"><tspan x="0" y="0" dy="0"/></text></g></g></g></g><text y="4" x="4" style="font-family: Arial, sans-serif; font-size: 12px; fill: black; font-weight: bold; dominant-baseline: hanging;"/></g></g><g id="grid"><rect x="0" y="0" width="827" height="600" fill="none" stroke="#ccc"/></g><clipPath id="serieClipPath"><rect x="-50" y="-50" width="827" height="600"/></clipPath><g id="legend" transform="translate(827,50)"><g transform="translate(5,0)"><g class="legendSize" transform="translate(0,0)"><g class="legendCells" transform="translate(19,15.734375)"><g class="cell" transform="translate(0, 2)"><circle class="swatch" r="2" fill="none" stroke="#ccc"/><text class="label" transform="translate( 24,&#10;          5)" font-family="&quot;Arial&quot;, sans-serif" font-size="10px"><tspan x="0" dy="0em">3.8</tspan></text></g><g class="cell" transform="translate(0, 36.734375)"><circle class="swatch" r="19" fill="none" stroke="#ccc"/><text class="label" transform="translate( 24,&#10;          5)" font-family="&quot;Arial&quot;, sans-serif" font-size="10px"><tspan x="0" dy="0em">297.2</tspan></text></g></g><text class="legendTitle" font-family="&quot;Arial&quot;, sans-serif" font-size="12px" font-weight="bold"><tspan x="0" dy="0em">ROI</tspan></text></g><g class="legendColor" transform="translate(0,104.0625)"><g class="legendCells" transform="translate(0,15.734375)"><g class="cell" transform="translate(0, 0)"><rect class="swatch" height="15" width="15" style="fill: rgb(158, 1, 66);"/><text class="label" transform="translate( 20, 12.5)" font-family="&quot;Arial&quot;, sans-serif" font-size="10px"><tspan x="0" dy="0em">Action</tspan></text></g><g class="cell" transform="translate(0, 20.734375)"><rect class="swatch" height="15" width="15" style="fill: rgb(219, 73, 74);"/><text class="label" transform="translate( 20, 12.5)" font-family="&quot;Arial&quot;, sans-serif" font-size="10px"><tspan x="0" dy="0em">Adventure</tspan></text></g><g class="cell" transform="translate(0, 41.46875)"><rect class="swatch" height="15" width="15" style="fill: rgb(248, 142, 83);"/><text class="label" transform="translate( 20, 12.5)" font-family="&quot;Arial&quot;, sans-serif" font-size="10px"><tspan x="0" dy="0em">Animation</tspan></text></g><g class="cell" transform="translate(0, 62.203125)"><rect class="swatch" height="15" width="15" style="fill: rgb(254, 210, 129);"/><text class="label" transform="translate( 20, 12.5)" font-family="&quot;Arial&quot;, sans-serif" font-size="10px"><tspan x="0" dy="0em">Biography</tspan></text></g><g class="cell" transform="translate(0, 82.9375)"><rect class="swatch" height="15" width="15" style="fill: rgb(251, 248, 176);"/><text class="label" transform="translate( 20, 12.5)" font-family="&quot;Arial&quot;, sans-serif" font-size="10px"><tspan x="0" dy="0em">Crime</tspan></text></g><g class="cell" transform="translate(0, 103.671875)"><rect class="swatch" height="15" width="15" style="fill: rgb(213, 238, 159);"/><text class="label" transform="translate( 20, 12.5)" font-family="&quot;Arial&quot;, sans-serif" font-size="10px"><tspan x="0" dy="0em">Drama</tspan></text></g><g class="cell" transform="translate(0, 124.40625)"><rect class="swatch" height="15" width="15" style="fill: rgb(137, 207, 165);"/><text class="label" transform="translate( 20, 12.5)" font-family="&quot;Arial&quot;, sans-serif" font-size="10px"><tspan x="0" dy="0em">Family</tspan></text></g><g class="cell" transform="translate(0, 145.140625)"><rect class="swatch" height="15" width="15" style="fill: rgb(70, 150, 179);"/><text class="label" transform="translate( 20, 12.5)" font-family="&quot;Arial&quot;, sans-serif" font-size="10px"><tspan x="0" dy="0em">Horror</tspan></text></g><g class="cell" transform="translate(0, 165.875)"><rect class="swatch" height="15" width="15" style="fill: rgb(94, 79, 162);"/><text class="label" transform="translate( 20, 12.5)" font-family="&quot;Arial&quot;, sans-serif" font-size="10px"><tspan x="0" dy="0em">Musical</tspan></text></g></g><text class="legendTitle" font-family="&quot;Arial&quot;, sans-serif" font-size="12px" font-weight="bold"><tspan x="0" dy="0em">Genre</tspan></text></g></g></g></svg>